<?xml version="1.0" standalone="no"?><!DOCTYPE svg PUBLIC "-//W3C//DTD SVG 1.1//EN" "http://www.w3.org/Graphics/SVG/1.1/DTD/svg11.dtd"><svg t="1621349495472" class="icon" viewBox="0 0 1024 1024" version="1.1" xmlns="http://www.w3.org/2000/svg" p-id="16988" xmlns:xlink="http://www.w3.org/1999/xlink" width="200" height="200"><defs><style type="text/css"></style></defs><path d="M501.294545 497.338182l198.004364-112.453818L885.108364 279.272727l-383.767273-217.832727L315.485091 167.098182 117.527273 279.272727z" fill="#00FFB0" p-id="16989"></path><path d="M925.416727 280.436364a40.354909 40.354909 0 0 0-1.303272-9.774546c-0.372364-1.396364-1.070545-2.606545-1.582546-3.863273-0.791273-2.001455-1.396364-4.049455-2.466909-5.864727-0.698182-1.303273-1.768727-2.327273-2.653091-3.490909-1.210182-1.629091-2.280727-3.397818-3.723636-4.840727-1.024-1.024-2.327273-1.768727-3.490909-2.699637-1.536-1.256727-2.978909-2.653091-4.747637-3.723636-0.046545 0-0.186182 0-0.232727-0.093091-0.093091 0-0.139636-0.093091-0.232727-0.139636L521.216 28.16a40.261818 40.261818 0 0 0-39.796364 0L295.656727 133.678545H295.563636L97.652364 245.946182c-0.093091 0-0.139636 0.093091-0.232728 0.139636l-0.232727 0.093091c-1.722182 1.024-3.072 2.373818-4.608 3.584-1.163636 0.930909-2.56 1.722182-3.584 2.792727-1.489455 1.536-2.606545 3.258182-3.863273 4.980364-0.791273 1.117091-1.861818 2.141091-2.513454 3.351273-1.163636 2.001455-1.861818 4.189091-2.653091 6.376727-0.465455 1.117091-1.070545 2.187636-1.396364 3.351273a39.517091 39.517091 0 0 0-1.256727 9.402182c0 0.418909-0.186182 0.744727-0.186182 1.163636v455.866182c0 14.615273 7.866182 28.066909 20.48 35.281454l383.813818 217.786182c2.094545 1.163636 4.282182 1.861818 6.469819 2.606546 1.024 0.372364 2.048 0.977455 3.118545 1.256727a39.563636 39.563636 0 0 0 20.666182 0c1.070545-0.232727 2.048-0.837818 3.118545-1.256727 2.187636-0.744727 4.375273-1.442909 6.423273-2.606546l383.813818-217.786182a40.541091 40.541091 0 0 0 20.48-35.281454V281.227636l-0.093091-0.791272z m-424.075636-170.449455l301.754182 171.240727-103.842909 58.973091-301.754182-171.287272 103.796363-58.926546zM315.485091 215.505455l301.754182 171.287272-115.898182 65.815273-301.800727-171.380364 115.898181-65.722181zM157.928727 350.72l303.010909 172.125091v362.496l-303.010909-171.938909V350.72z m686.778182 362.682182l-303.010909 171.938909v-362.496l303.010909-172.125091v362.682182z" fill="#000A64" p-id="16990"></path></svg>